<mxfile host="app.diagrams.net" modified="2021-05-24T14:58:55.886Z" agent="5.0 (Windows NT 10.0; Win64; x64) AppleWebKit/537.36 (KHTML, like Gecko) Chrome/90.0.4430.212 Safari/537.36" etag="PEFaHkOr8fTCh6LE8auY" version="14.6.13" type="github">
  <diagram id="kgpKYQtTHZ0yAKxKKP6v" name="Page-1">
    <mxGraphModel dx="2586" dy="1886" grid="0" gridSize="10" guides="1" tooltips="1" connect="1" arrows="1" fold="1" page="1" pageScale="1" pageWidth="850" pageHeight="1100" math="0" shadow="0">
      <root>
        <mxCell id="0" />
        <mxCell id="1" parent="0" />
        <mxCell id="IlzDBT_YhNbfhRG8kvDQ-27" value="Cliente" style="shape=umlLifeline;perimeter=lifelinePerimeter;container=1;collapsible=0;recursiveResize=0;rounded=0;shadow=0;strokeWidth=1;" parent="1" vertex="1">
          <mxGeometry x="-150" y="70" width="100" height="205" as="geometry" />
        </mxCell>
        <mxCell id="IlzDBT_YhNbfhRG8kvDQ-28" value="" style="points=[];perimeter=orthogonalPerimeter;rounded=0;shadow=0;strokeWidth=1;" parent="IlzDBT_YhNbfhRG8kvDQ-27" vertex="1">
          <mxGeometry x="45" y="65" width="10" height="115" as="geometry" />
        </mxCell>
        <mxCell id="IlzDBT_YhNbfhRG8kvDQ-30" value="consultarDados" style="verticalAlign=bottom;endArrow=block;shadow=0;strokeWidth=1;" parent="1" edge="1">
          <mxGeometry x="-0.0052" y="10" relative="1" as="geometry">
            <mxPoint x="-275" y="150.0000000000001" as="sourcePoint" />
            <mxPoint x="-110" y="150" as="targetPoint" />
            <mxPoint as="offset" />
          </mxGeometry>
        </mxCell>
        <mxCell id="IlzDBT_YhNbfhRG8kvDQ-31" value="" style="shape=umlLifeline;participant=umlActor;perimeter=lifelinePerimeter;whiteSpace=wrap;html=1;container=1;collapsible=0;recursiveResize=0;verticalAlign=top;spacingTop=36;outlineConnect=0;" parent="1" vertex="1">
          <mxGeometry x="-290" y="80" width="20" height="195" as="geometry" />
        </mxCell>
        <mxCell id="IlzDBT_YhNbfhRG8kvDQ-40" value="Cliente" style="shape=umlLifeline;perimeter=lifelinePerimeter;container=1;collapsible=0;recursiveResize=0;rounded=0;shadow=0;strokeWidth=1;" parent="1" vertex="1">
          <mxGeometry x="-632" y="75" width="100" height="220" as="geometry" />
        </mxCell>
        <mxCell id="IlzDBT_YhNbfhRG8kvDQ-41" value="" style="points=[];perimeter=orthogonalPerimeter;rounded=0;shadow=0;strokeWidth=1;" parent="IlzDBT_YhNbfhRG8kvDQ-40" vertex="1">
          <mxGeometry x="45" y="70" width="10" height="150" as="geometry" />
        </mxCell>
        <mxCell id="IlzDBT_YhNbfhRG8kvDQ-42" value="" style="verticalAlign=bottom;endArrow=open;dashed=1;endSize=8;shadow=0;strokeWidth=1;" parent="1" edge="1">
          <mxGeometry relative="1" as="geometry">
            <mxPoint x="-752" y="240" as="targetPoint" />
            <mxPoint x="-592" y="240" as="sourcePoint" />
          </mxGeometry>
        </mxCell>
        <mxCell id="IlzDBT_YhNbfhRG8kvDQ-43" value="incluir" style="verticalAlign=bottom;endArrow=block;shadow=0;strokeWidth=1;" parent="1" edge="1">
          <mxGeometry x="-0.0052" y="10" relative="1" as="geometry">
            <mxPoint x="-752" y="172.0000000000001" as="sourcePoint" />
            <mxPoint x="-587" y="170" as="targetPoint" />
            <mxPoint as="offset" />
          </mxGeometry>
        </mxCell>
        <mxCell id="IlzDBT_YhNbfhRG8kvDQ-44" value="" style="shape=umlLifeline;participant=umlActor;perimeter=lifelinePerimeter;whiteSpace=wrap;html=1;container=1;collapsible=0;recursiveResize=0;verticalAlign=top;spacingTop=36;outlineConnect=0;" parent="1" vertex="1">
          <mxGeometry x="-772" y="80" width="20" height="195" as="geometry" />
        </mxCell>
        <mxCell id="IlzDBT_YhNbfhRG8kvDQ-46" value="Vendedor" style="html=1;overflow=block;blockSpacing=1;whiteSpace=wrap;swimlane;childLayout=stackLayout;horizontal=1;horizontalStack=0;resizeParent=1;resizeParentMax=0;resizeLast=0;collapsible=0;fontStyle=0;marginBottom=0;swimlaneFillColor=#ffdba9;startSize=25;whiteSpace=wrap;fontSize=16.8;fontColor=#333333;fontStyle=1;align=center;whiteSpace=wrap;align=left;spacing=0;strokeColor=#333333;strokeOpacity=100;fillOpacity=20;rounded=1;absoluteArcSize=1;arcSize=12;fillColor=#ffdba9;strokeWidth=1.5;" parent="1" vertex="1">
          <mxGeometry x="-50" y="-529" width="190" height="142" as="geometry" />
        </mxCell>
        <mxCell id="IlzDBT_YhNbfhRG8kvDQ-47" value="- codigoVendedor : int&#xa;- nomeVendedor : String" style="part=1;html=1;whiteSpace=wrap;resizeHeight=0;strokeColor=none;fillColor=none;align=left;verticalAlign=middle;spacingLeft=4;spacingRight=4;overflow=hidden;rotatable=0;points=[[0,0.5],[1,0.5]];portConstraint=eastwest;swimlaneFillColor=#ffdba9;strokeOpacity=100;fillOpacity=20;whiteSpace=wrap;fontSize=13;fontColor=#333333;fontStyle=1;" parent="IlzDBT_YhNbfhRG8kvDQ-46" vertex="1">
          <mxGeometry y="25" width="190" height="65" as="geometry" />
        </mxCell>
        <mxCell id="IlzDBT_YhNbfhRG8kvDQ-48" value="" style="line;strokeWidth=1;fillColor=none;align=left;verticalAlign=middle;spacingTop=-1;spacingLeft=3;spacingRight=3;rotatable=0;labelPosition=right;points=[];portConstraint=eastwest;" parent="IlzDBT_YhNbfhRG8kvDQ-46" vertex="1">
          <mxGeometry y="90" width="190" height="8" as="geometry" />
        </mxCell>
        <mxCell id="IlzDBT_YhNbfhRG8kvDQ-49" value="- exibirHistorico() : String&#xa;- incluir() : Int&#xa;- alterar() : Int&#xa;- excluir() :  void" style="part=1;html=1;whiteSpace=wrap;resizeHeight=0;strokeColor=none;fillColor=none;align=left;verticalAlign=middle;spacingLeft=4;spacingRight=4;overflow=hidden;rotatable=0;points=[[0,0.5],[1,0.5]];portConstraint=eastwest;swimlaneFillColor=#ffdba9;strokeOpacity=100;fillOpacity=20;whiteSpace=wrap;fontSize=13;fontColor=#333333;fontStyle=1;" parent="IlzDBT_YhNbfhRG8kvDQ-46" vertex="1">
          <mxGeometry y="98" width="190" height="44" as="geometry" />
        </mxCell>
        <mxCell id="IlzDBT_YhNbfhRG8kvDQ-50" value="Financiamento" style="html=1;overflow=block;blockSpacing=1;whiteSpace=wrap;swimlane;childLayout=stackLayout;horizontal=1;horizontalStack=0;resizeParent=1;resizeParentMax=0;resizeLast=0;collapsible=0;fontStyle=0;marginBottom=0;swimlaneFillColor=#ffdba9;startSize=25;whiteSpace=wrap;fontSize=16.8;fontColor=#333333;fontStyle=1;align=center;whiteSpace=wrap;align=left;spacing=0;strokeColor=#333333;strokeOpacity=100;fillOpacity=20;rounded=1;absoluteArcSize=1;arcSize=12;fillColor=#ffdba9;strokeWidth=1.5;" parent="1" vertex="1">
          <mxGeometry x="570" y="-550" width="198" height="168.65734265734258" as="geometry" />
        </mxCell>
        <mxCell id="IlzDBT_YhNbfhRG8kvDQ-51" value="- cpfCliente : String&#xa;- numeroPedido : int&#xa;- codigodoProduto :  int&#xa;- codigoFinanciamento : int&#xa;- statusFinanciamento: String" style="part=1;html=1;whiteSpace=wrap;resizeHeight=0;strokeColor=none;fillColor=none;align=left;verticalAlign=middle;spacingLeft=4;spacingRight=4;overflow=hidden;rotatable=0;points=[[0,0.5],[1,0.5]];portConstraint=eastwest;swimlaneFillColor=#ffdba9;strokeOpacity=100;fillOpacity=20;whiteSpace=wrap;fontSize=13;fontColor=#333333;fontStyle=1;" parent="IlzDBT_YhNbfhRG8kvDQ-50" vertex="1">
          <mxGeometry y="25" width="198" height="76" as="geometry" />
        </mxCell>
        <mxCell id="IlzDBT_YhNbfhRG8kvDQ-52" value="" style="line;strokeWidth=1;fillColor=none;align=left;verticalAlign=middle;spacingTop=-1;spacingLeft=3;spacingRight=3;rotatable=0;labelPosition=right;points=[];portConstraint=eastwest;" parent="IlzDBT_YhNbfhRG8kvDQ-50" vertex="1">
          <mxGeometry y="101" width="198" height="8" as="geometry" />
        </mxCell>
        <mxCell id="IlzDBT_YhNbfhRG8kvDQ-53" value="- validarCliente() : String&#xa;- calcularParcela() : int" style="part=1;html=1;whiteSpace=wrap;resizeHeight=0;strokeColor=none;fillColor=none;align=left;verticalAlign=middle;spacingLeft=4;spacingRight=4;overflow=hidden;rotatable=0;points=[[0,0.5],[1,0.5]];portConstraint=eastwest;swimlaneFillColor=#ffdba9;strokeOpacity=100;fillOpacity=20;whiteSpace=wrap;fontSize=13;fontColor=#333333;fontStyle=1;" parent="IlzDBT_YhNbfhRG8kvDQ-50" vertex="1">
          <mxGeometry y="109" width="198" height="59.65734265734258" as="geometry" />
        </mxCell>
        <mxCell id="IlzDBT_YhNbfhRG8kvDQ-54" value="Cliente" style="html=1;overflow=block;blockSpacing=1;whiteSpace=wrap;swimlane;childLayout=stackLayout;horizontal=1;horizontalStack=0;resizeParent=1;resizeParentMax=0;resizeLast=0;collapsible=0;fontStyle=0;marginBottom=0;swimlaneFillColor=#ffdba9;startSize=25;whiteSpace=wrap;fontSize=16.8;fontColor=#333333;fontStyle=1;align=center;whiteSpace=wrap;align=left;spacing=0;strokeColor=#333333;strokeOpacity=100;fillOpacity=20;rounded=1;absoluteArcSize=1;arcSize=12;fillColor=#ffdba9;strokeWidth=1.5;" parent="1" vertex="1">
          <mxGeometry x="260" y="-820" width="180" height="230" as="geometry" />
        </mxCell>
        <mxCell id="IlzDBT_YhNbfhRG8kvDQ-55" value="- nome : String&#xa;- rg : String&#xa;- cpfCliente : String&#xa;- endereÃ§o : String&#xa;- tefone : int&#xa;- situacaoCliente :  String" style="part=1;html=1;whiteSpace=wrap;resizeHeight=0;strokeColor=none;fillColor=none;align=left;verticalAlign=middle;spacingLeft=4;spacingRight=4;overflow=hidden;rotatable=0;points=[[0,0.5],[1,0.5]];portConstraint=eastwest;swimlaneFillColor=#ffdba9;strokeOpacity=100;fillOpacity=20;whiteSpace=wrap;fontSize=13;fontColor=#333333;fontStyle=1;" parent="IlzDBT_YhNbfhRG8kvDQ-54" vertex="1">
          <mxGeometry y="25" width="180" height="105" as="geometry" />
        </mxCell>
        <mxCell id="IlzDBT_YhNbfhRG8kvDQ-56" value="" style="line;strokeWidth=1;fillColor=none;align=left;verticalAlign=middle;spacingTop=-1;spacingLeft=3;spacingRight=3;rotatable=0;labelPosition=right;points=[];portConstraint=eastwest;" parent="IlzDBT_YhNbfhRG8kvDQ-54" vertex="1">
          <mxGeometry y="130" width="180" height="8" as="geometry" />
        </mxCell>
        <mxCell id="IlzDBT_YhNbfhRG8kvDQ-57" value="- incluir() : Strig&#xa;- alterar() : String&#xa;- excluir() : void&#xa;- exibirSituacao() : String&#xa;- consultarDados() : String" style="part=1;html=1;whiteSpace=wrap;resizeHeight=0;strokeColor=none;fillColor=none;align=left;verticalAlign=middle;spacingLeft=4;spacingRight=4;overflow=hidden;rotatable=0;points=[[0,0.5],[1,0.5]];portConstraint=eastwest;swimlaneFillColor=#ffdba9;strokeOpacity=100;fillOpacity=20;whiteSpace=wrap;fontSize=13;fontColor=#333333;fontStyle=1;" parent="IlzDBT_YhNbfhRG8kvDQ-54" vertex="1">
          <mxGeometry y="138" width="180" height="92" as="geometry" />
        </mxCell>
        <mxCell id="IlzDBT_YhNbfhRG8kvDQ-58" value="Produto" style="html=1;overflow=block;blockSpacing=1;whiteSpace=wrap;swimlane;childLayout=stackLayout;horizontal=1;horizontalStack=0;resizeParent=1;resizeParentMax=0;resizeLast=0;collapsible=0;fontStyle=0;marginBottom=0;swimlaneFillColor=#ffdba9;startSize=25;whiteSpace=wrap;fontSize=16.8;fontColor=#333333;fontStyle=1;align=center;whiteSpace=wrap;align=left;spacing=0;strokeColor=#333333;strokeOpacity=100;fillOpacity=20;rounded=1;absoluteArcSize=1;arcSize=12;fillColor=#ffdba9;strokeWidth=1.5;" parent="1" vertex="1">
          <mxGeometry x="243.5" y="-320" width="191" height="185.25" as="geometry" />
        </mxCell>
        <mxCell id="IlzDBT_YhNbfhRG8kvDQ-59" value="- codigoProduto :  int&#xa;- preÃ§o :  float&#xa;- descricaoProduto : String&#xa;- disponibilidade: String" style="part=1;html=1;whiteSpace=wrap;resizeHeight=0;strokeColor=none;fillColor=none;align=left;verticalAlign=middle;spacingLeft=4;spacingRight=4;overflow=hidden;rotatable=0;points=[[0,0.5],[1,0.5]];portConstraint=eastwest;swimlaneFillColor=#ffdba9;strokeOpacity=100;fillOpacity=20;whiteSpace=wrap;fontSize=13;fontColor=#333333;fontStyle=1;" parent="IlzDBT_YhNbfhRG8kvDQ-58" vertex="1">
          <mxGeometry y="25" width="191" height="80" as="geometry" />
        </mxCell>
        <mxCell id="IlzDBT_YhNbfhRG8kvDQ-60" value="" style="line;strokeWidth=1;fillColor=none;align=left;verticalAlign=middle;spacingTop=-1;spacingLeft=3;spacingRight=3;rotatable=0;labelPosition=right;points=[];portConstraint=eastwest;" parent="IlzDBT_YhNbfhRG8kvDQ-58" vertex="1">
          <mxGeometry y="105" width="191" height="8" as="geometry" />
        </mxCell>
        <mxCell id="IlzDBT_YhNbfhRG8kvDQ-61" value="- exibir() :  String&lt;br&gt;- incluir() : int&lt;br&gt;- excluir() : void&lt;br&gt;- alterar() : String&lt;br&gt;- verifica(): String" style="part=1;html=1;whiteSpace=wrap;resizeHeight=0;strokeColor=none;fillColor=none;align=left;verticalAlign=middle;spacingLeft=4;spacingRight=4;overflow=hidden;rotatable=0;points=[[0,0.5],[1,0.5]];portConstraint=eastwest;swimlaneFillColor=#ffdba9;strokeOpacity=100;fillOpacity=20;whiteSpace=wrap;fontSize=13;fontColor=#333333;fontStyle=1;" parent="IlzDBT_YhNbfhRG8kvDQ-58" vertex="1">
          <mxGeometry y="113" width="191" height="72.25" as="geometry" />
        </mxCell>
        <UserObject label="" lucidchartObjectId="Kd.h5yDTrZx3" id="IlzDBT_YhNbfhRG8kvDQ-62">
          <mxCell style="html=1;jettySize=18;whiteSpace=wrap;fontSize=13;strokeColor=#333333;strokeOpacity=100;strokeWidth=0.8;rounded=1;arcSize=24;edgeStyle=orthogonalEdgeStyle;startArrow=none;;endArrow=none;;exitX=1.004;exitY=0.5;exitPerimeter=0;entryX=-0.004;entryY=0.5;entryPerimeter=0;" parent="1" source="IlzDBT_YhNbfhRG8kvDQ-46" target="IlzDBT_YhNbfhRG8kvDQ-66" edge="1">
            <mxGeometry width="100" height="100" relative="1" as="geometry">
              <Array as="points" />
            </mxGeometry>
          </mxCell>
        </UserObject>
        <UserObject label="" lucidchartObjectId="ig.h.K.F-uv3" id="IlzDBT_YhNbfhRG8kvDQ-63">
          <mxCell style="html=1;jettySize=18;whiteSpace=wrap;fontSize=13;strokeColor=#333333;strokeOpacity=100;strokeWidth=0.8;rounded=1;arcSize=24;edgeStyle=orthogonalEdgeStyle;startArrow=none;;endArrow=none;;exitX=1.004;exitY=0.5;exitPerimeter=0;entryX=-0.003;entryY=0.542;entryPerimeter=0;" parent="1" source="IlzDBT_YhNbfhRG8kvDQ-66" target="IlzDBT_YhNbfhRG8kvDQ-50" edge="1">
            <mxGeometry width="100" height="100" relative="1" as="geometry">
              <Array as="points" />
            </mxGeometry>
          </mxCell>
        </UserObject>
        <UserObject label="" lucidchartObjectId="ug.h24fv4jcq" id="IlzDBT_YhNbfhRG8kvDQ-64">
          <mxCell style="html=1;jettySize=18;whiteSpace=wrap;fontSize=13;strokeColor=#333333;strokeOpacity=100;strokeWidth=0.8;rounded=1;arcSize=24;edgeStyle=orthogonalEdgeStyle;startArrow=none;;endArrow=none;;exitX=1.003;exitY=0.5;exitPerimeter=0;entryX=0.5;entryY=-0.004;entryPerimeter=0;" parent="1" source="IlzDBT_YhNbfhRG8kvDQ-54" target="IlzDBT_YhNbfhRG8kvDQ-50" edge="1">
            <mxGeometry width="100" height="100" relative="1" as="geometry">
              <Array as="points" />
            </mxGeometry>
          </mxCell>
        </UserObject>
        <UserObject label="" lucidchartObjectId="Vg.hbdh7Q2y." id="IlzDBT_YhNbfhRG8kvDQ-65">
          <mxCell style="html=1;jettySize=18;whiteSpace=wrap;fontSize=13;strokeColor=#333333;strokeOpacity=100;strokeWidth=0.8;rounded=1;arcSize=24;edgeStyle=orthogonalEdgeStyle;startArrow=none;;endArrow=none;;exitX=0.5;exitY=-0.004;exitPerimeter=0;entryX=0.5;entryY=1.003;entryPerimeter=0;" parent="1" source="IlzDBT_YhNbfhRG8kvDQ-58" target="IlzDBT_YhNbfhRG8kvDQ-66" edge="1">
            <mxGeometry width="100" height="100" relative="1" as="geometry">
              <Array as="points" />
            </mxGeometry>
          </mxCell>
        </UserObject>
        <mxCell id="IlzDBT_YhNbfhRG8kvDQ-66" value="Pedido" style="html=1;overflow=block;blockSpacing=1;whiteSpace=wrap;swimlane;childLayout=stackLayout;horizontal=1;horizontalStack=0;resizeParent=1;resizeParentMax=0;resizeLast=0;collapsible=0;fontStyle=0;marginBottom=0;swimlaneFillColor=#ffdba9;startSize=25;whiteSpace=wrap;fontSize=16.8;fontColor=#333333;fontStyle=1;align=center;whiteSpace=wrap;align=left;spacing=0;strokeColor=#333333;strokeOpacity=100;fillOpacity=20;rounded=1;absoluteArcSize=1;arcSize=12;fillColor=#ffdba9;strokeWidth=1.5;" parent="1" vertex="1">
          <mxGeometry x="250.5" y="-560" width="184" height="204" as="geometry" />
        </mxCell>
        <mxCell id="IlzDBT_YhNbfhRG8kvDQ-67" value="-  numeroPedido : int&#xa;- codigoProduto : int&#xa;- codigoVendedor : int&#xa;- codigoCliente : int&#xa;- codigoFinanciamento : int&#xa;- statusPedido: String" style="part=1;html=1;whiteSpace=wrap;resizeHeight=0;strokeColor=none;fillColor=none;align=left;verticalAlign=middle;spacingLeft=4;spacingRight=4;overflow=hidden;rotatable=0;points=[[0,0.5],[1,0.5]];portConstraint=eastwest;swimlaneFillColor=#ffdba9;strokeOpacity=100;fillOpacity=20;whiteSpace=wrap;fontSize=13;fontColor=#333333;fontStyle=1;" parent="IlzDBT_YhNbfhRG8kvDQ-66" vertex="1">
          <mxGeometry y="25" width="184" height="97" as="geometry" />
        </mxCell>
        <mxCell id="IlzDBT_YhNbfhRG8kvDQ-68" value="" style="line;strokeWidth=1;fillColor=none;align=left;verticalAlign=middle;spacingTop=-1;spacingLeft=3;spacingRight=3;rotatable=0;labelPosition=right;points=[];portConstraint=eastwest;" parent="IlzDBT_YhNbfhRG8kvDQ-66" vertex="1">
          <mxGeometry y="122" width="184" height="8" as="geometry" />
        </mxCell>
        <mxCell id="IlzDBT_YhNbfhRG8kvDQ-69" value="- incluir () : int&#xa;- alterar() :  String&#xa;- excluir() :  void&#xa;- exibirSituacaoPedido :  String" style="part=1;html=1;whiteSpace=wrap;resizeHeight=0;strokeColor=none;fillColor=none;align=left;verticalAlign=middle;spacingLeft=4;spacingRight=4;overflow=hidden;rotatable=0;points=[[0,0.5],[1,0.5]];portConstraint=eastwest;swimlaneFillColor=#ffdba9;strokeOpacity=100;fillOpacity=20;whiteSpace=wrap;fontSize=13;fontColor=#333333;fontStyle=1;" parent="IlzDBT_YhNbfhRG8kvDQ-66" vertex="1">
          <mxGeometry y="130" width="184" height="74" as="geometry" />
        </mxCell>
        <UserObject label="" lucidchartObjectId="pIli5hG8k33Q" id="IlzDBT_YhNbfhRG8kvDQ-70">
          <mxCell style="html=1;jettySize=18;whiteSpace=wrap;fontSize=13;strokeColor=#333333;strokeOpacity=100;strokeWidth=0.8;rounded=1;arcSize=24;edgeStyle=orthogonalEdgeStyle;startArrow=none;;endArrow=none;;exitX=0.5;exitY=1.003;exitPerimeter=0;entryX=0.5;entryY=-0.003;entryPerimeter=0;" parent="1" source="IlzDBT_YhNbfhRG8kvDQ-54" target="IlzDBT_YhNbfhRG8kvDQ-66" edge="1">
            <mxGeometry width="100" height="100" relative="1" as="geometry">
              <Array as="points" />
            </mxGeometry>
          </mxCell>
        </UserObject>
        <mxCell id="IlzDBT_YhNbfhRG8kvDQ-79" value="" style="verticalAlign=bottom;endArrow=open;dashed=1;endSize=8;shadow=0;strokeWidth=1;" parent="1" edge="1">
          <mxGeometry relative="1" as="geometry">
            <mxPoint x="-270" y="235" as="targetPoint" />
            <mxPoint x="-110" y="235" as="sourcePoint" />
          </mxGeometry>
        </mxCell>
        <mxCell id="rlOCz0cMKv89jhv7vYwl-69" value="Pedido" style="shape=umlLifeline;perimeter=lifelinePerimeter;container=1;collapsible=0;recursiveResize=0;rounded=0;shadow=0;strokeWidth=1;" parent="1" vertex="1">
          <mxGeometry x="1390" y="460" width="100" height="205" as="geometry" />
        </mxCell>
        <mxCell id="rlOCz0cMKv89jhv7vYwl-70" value="" style="points=[];perimeter=orthogonalPerimeter;rounded=0;shadow=0;strokeWidth=1;" parent="rlOCz0cMKv89jhv7vYwl-69" vertex="1">
          <mxGeometry x="45" y="68" width="10" height="115" as="geometry" />
        </mxCell>
        <mxCell id="rlOCz0cMKv89jhv7vYwl-71" value="ExibirSituaÃ§ao" style="verticalAlign=bottom;endArrow=block;shadow=0;strokeWidth=1;" parent="1" edge="1">
          <mxGeometry x="-0.0052" y="10" relative="1" as="geometry">
            <mxPoint x="1265" y="551" as="sourcePoint" />
            <mxPoint x="1430" y="551" as="targetPoint" />
            <mxPoint as="offset" />
          </mxGeometry>
        </mxCell>
        <mxCell id="rlOCz0cMKv89jhv7vYwl-72" value="" style="shape=umlLifeline;participant=umlActor;perimeter=lifelinePerimeter;whiteSpace=wrap;html=1;container=1;collapsible=0;recursiveResize=0;verticalAlign=top;spacingTop=36;outlineConnect=0;" parent="1" vertex="1">
          <mxGeometry x="1250" y="470" width="20" height="195" as="geometry" />
        </mxCell>
        <mxCell id="rlOCz0cMKv89jhv7vYwl-73" value="Financiamento" style="shape=umlLifeline;perimeter=lifelinePerimeter;whiteSpace=wrap;html=1;container=1;collapsible=0;recursiveResize=0;outlineConnect=0;" parent="1" vertex="1">
          <mxGeometry x="1570" y="465" width="100" height="195" as="geometry" />
        </mxCell>
        <mxCell id="rlOCz0cMKv89jhv7vYwl-74" value="" style="points=[];perimeter=orthogonalPerimeter;rounded=0;shadow=0;strokeWidth=1;" parent="rlOCz0cMKv89jhv7vYwl-73" vertex="1">
          <mxGeometry x="45" y="90" width="10" height="70" as="geometry" />
        </mxCell>
        <mxCell id="rlOCz0cMKv89jhv7vYwl-75" value="" style="verticalAlign=bottom;endArrow=block;shadow=0;strokeWidth=1;" parent="1" edge="1">
          <mxGeometry x="0.0909" y="5" relative="1" as="geometry">
            <mxPoint x="1450" y="569.5" as="sourcePoint" />
            <mxPoint x="1615" y="569.5" as="targetPoint" />
            <mxPoint y="1" as="offset" />
          </mxGeometry>
        </mxCell>
        <mxCell id="rlOCz0cMKv89jhv7vYwl-76" value="" style="verticalAlign=bottom;endArrow=open;dashed=1;endSize=8;shadow=0;strokeWidth=1;" parent="1" edge="1">
          <mxGeometry relative="1" as="geometry">
            <mxPoint x="1450" y="605" as="targetPoint" />
            <mxPoint x="1610" y="605" as="sourcePoint" />
          </mxGeometry>
        </mxCell>
        <mxCell id="rlOCz0cMKv89jhv7vYwl-77" value="" style="verticalAlign=bottom;endArrow=open;dashed=1;endSize=8;shadow=0;strokeWidth=1;" parent="1" edge="1">
          <mxGeometry relative="1" as="geometry">
            <mxPoint x="1270" y="623" as="targetPoint" />
            <mxPoint x="1430" y="623" as="sourcePoint" />
          </mxGeometry>
        </mxCell>
        <mxCell id="rlOCz0cMKv89jhv7vYwl-78" value="Produto" style="shape=umlLifeline;perimeter=lifelinePerimeter;container=1;collapsible=0;recursiveResize=0;rounded=0;shadow=0;strokeWidth=1;" parent="1" vertex="1">
          <mxGeometry x="-630" y="488" width="100" height="190" as="geometry" />
        </mxCell>
        <mxCell id="rlOCz0cMKv89jhv7vYwl-79" value="" style="points=[];perimeter=orthogonalPerimeter;rounded=0;shadow=0;strokeWidth=1;" parent="rlOCz0cMKv89jhv7vYwl-78" vertex="1">
          <mxGeometry x="45" y="80" width="10" height="80" as="geometry" />
        </mxCell>
        <mxCell id="rlOCz0cMKv89jhv7vYwl-80" value="exibir" style="verticalAlign=bottom;endArrow=block;shadow=0;strokeWidth=1;" parent="1" edge="1">
          <mxGeometry x="-0.0052" y="10" relative="1" as="geometry">
            <mxPoint x="-755" y="582" as="sourcePoint" />
            <mxPoint x="-590" y="582" as="targetPoint" />
            <mxPoint as="offset" />
          </mxGeometry>
        </mxCell>
        <mxCell id="rlOCz0cMKv89jhv7vYwl-81" value="" style="shape=umlLifeline;participant=umlActor;perimeter=lifelinePerimeter;whiteSpace=wrap;html=1;container=1;collapsible=0;recursiveResize=0;verticalAlign=top;spacingTop=36;outlineConnect=0;" parent="1" vertex="1">
          <mxGeometry x="-770" y="498" width="20" height="180" as="geometry" />
        </mxCell>
        <mxCell id="rlOCz0cMKv89jhv7vYwl-90" value="" style="verticalAlign=bottom;endArrow=open;dashed=1;endSize=8;shadow=0;strokeWidth=1;" parent="1" edge="1">
          <mxGeometry relative="1" as="geometry">
            <mxPoint x="-750" y="632" as="targetPoint" />
            <mxPoint x="-590" y="632" as="sourcePoint" />
          </mxGeometry>
        </mxCell>
        <mxCell id="vx2E2OW8xIj6aME_3n_N-1" value="Produto" style="shape=umlLifeline;perimeter=lifelinePerimeter;container=1;collapsible=0;recursiveResize=0;rounded=0;shadow=0;strokeWidth=1;" parent="1" vertex="1">
          <mxGeometry x="-255" y="470" width="100" height="205" as="geometry" />
        </mxCell>
        <mxCell id="vx2E2OW8xIj6aME_3n_N-2" value="" style="points=[];perimeter=orthogonalPerimeter;rounded=0;shadow=0;strokeWidth=1;" parent="vx2E2OW8xIj6aME_3n_N-1" vertex="1">
          <mxGeometry x="45" y="80" width="10" height="90" as="geometry" />
        </mxCell>
        <mxCell id="vx2E2OW8xIj6aME_3n_N-3" value="incluir" style="verticalAlign=bottom;endArrow=block;shadow=0;strokeWidth=1;" parent="1" edge="1">
          <mxGeometry x="-0.0052" y="10" relative="1" as="geometry">
            <mxPoint x="-380" y="564" as="sourcePoint" />
            <mxPoint x="-215" y="564" as="targetPoint" />
            <mxPoint as="offset" />
          </mxGeometry>
        </mxCell>
        <mxCell id="vx2E2OW8xIj6aME_3n_N-4" value="" style="shape=umlLifeline;participant=umlActor;perimeter=lifelinePerimeter;whiteSpace=wrap;html=1;container=1;collapsible=0;recursiveResize=0;verticalAlign=top;spacingTop=36;outlineConnect=0;" parent="1" vertex="1">
          <mxGeometry x="-395" y="480" width="20" height="195" as="geometry" />
        </mxCell>
        <mxCell id="vx2E2OW8xIj6aME_3n_N-5" value="" style="verticalAlign=bottom;endArrow=open;dashed=1;endSize=8;shadow=0;strokeWidth=1;" parent="1" edge="1">
          <mxGeometry relative="1" as="geometry">
            <mxPoint x="-375" y="622" as="targetPoint" />
            <mxPoint x="-215" y="622" as="sourcePoint" />
          </mxGeometry>
        </mxCell>
        <mxCell id="vx2E2OW8xIj6aME_3n_N-10" value="Produto" style="shape=umlLifeline;perimeter=lifelinePerimeter;container=1;collapsible=0;recursiveResize=0;rounded=0;shadow=0;strokeWidth=1;" parent="1" vertex="1">
          <mxGeometry x="194" y="465" width="100" height="205" as="geometry" />
        </mxCell>
        <mxCell id="vx2E2OW8xIj6aME_3n_N-11" value="" style="points=[];perimeter=orthogonalPerimeter;rounded=0;shadow=0;strokeWidth=1;" parent="vx2E2OW8xIj6aME_3n_N-10" vertex="1">
          <mxGeometry x="45" y="80" width="10" height="87" as="geometry" />
        </mxCell>
        <mxCell id="vx2E2OW8xIj6aME_3n_N-12" value="excluir" style="verticalAlign=bottom;endArrow=block;shadow=0;strokeWidth=1;" parent="1" edge="1">
          <mxGeometry x="-0.0052" y="10" relative="1" as="geometry">
            <mxPoint x="69" y="564" as="sourcePoint" />
            <mxPoint x="234" y="564" as="targetPoint" />
            <mxPoint as="offset" />
          </mxGeometry>
        </mxCell>
        <mxCell id="vx2E2OW8xIj6aME_3n_N-13" value="" style="shape=umlLifeline;participant=umlActor;perimeter=lifelinePerimeter;whiteSpace=wrap;html=1;container=1;collapsible=0;recursiveResize=0;verticalAlign=top;spacingTop=36;outlineConnect=0;" parent="1" vertex="1">
          <mxGeometry x="54" y="475" width="20" height="195" as="geometry" />
        </mxCell>
        <mxCell id="vx2E2OW8xIj6aME_3n_N-14" value="" style="verticalAlign=bottom;endArrow=open;dashed=1;endSize=8;shadow=0;strokeWidth=1;" parent="1" edge="1">
          <mxGeometry relative="1" as="geometry">
            <mxPoint x="74" y="614" as="targetPoint" />
            <mxPoint x="234" y="614" as="sourcePoint" />
          </mxGeometry>
        </mxCell>
        <mxCell id="vx2E2OW8xIj6aME_3n_N-15" value="Produto" style="shape=umlLifeline;perimeter=lifelinePerimeter;container=1;collapsible=0;recursiveResize=0;rounded=0;shadow=0;strokeWidth=1;" parent="1" vertex="1">
          <mxGeometry x="659" y="462" width="100" height="205" as="geometry" />
        </mxCell>
        <mxCell id="vx2E2OW8xIj6aME_3n_N-16" value="" style="points=[];perimeter=orthogonalPerimeter;rounded=0;shadow=0;strokeWidth=1;" parent="vx2E2OW8xIj6aME_3n_N-15" vertex="1">
          <mxGeometry x="45" y="90" width="10" height="80" as="geometry" />
        </mxCell>
        <mxCell id="vx2E2OW8xIj6aME_3n_N-17" value="alterar" style="verticalAlign=bottom;endArrow=block;shadow=0;strokeWidth=1;" parent="1" edge="1">
          <mxGeometry x="-0.0052" y="10" relative="1" as="geometry">
            <mxPoint x="534" y="558" as="sourcePoint" />
            <mxPoint x="699" y="558" as="targetPoint" />
            <mxPoint as="offset" />
          </mxGeometry>
        </mxCell>
        <mxCell id="vx2E2OW8xIj6aME_3n_N-18" value="" style="shape=umlLifeline;participant=umlActor;perimeter=lifelinePerimeter;whiteSpace=wrap;html=1;container=1;collapsible=0;recursiveResize=0;verticalAlign=top;spacingTop=36;outlineConnect=0;" parent="1" vertex="1">
          <mxGeometry x="519" y="472" width="20" height="195" as="geometry" />
        </mxCell>
        <mxCell id="vx2E2OW8xIj6aME_3n_N-19" value="" style="verticalAlign=bottom;endArrow=open;dashed=1;endSize=8;shadow=0;strokeWidth=1;" parent="1" edge="1">
          <mxGeometry relative="1" as="geometry">
            <mxPoint x="539" y="612" as="targetPoint" />
            <mxPoint x="699" y="612" as="sourcePoint" />
          </mxGeometry>
        </mxCell>
        <mxCell id="vx2E2OW8xIj6aME_3n_N-21" value="" style="verticalAlign=bottom;endArrow=block;shadow=0;strokeWidth=1;" parent="1" edge="1">
          <mxGeometry x="-0.0052" y="10" relative="1" as="geometry">
            <mxPoint x="-803" y="965" as="sourcePoint" />
            <mxPoint x="-638" y="965" as="targetPoint" />
            <mxPoint as="offset" />
          </mxGeometry>
        </mxCell>
        <mxCell id="vx2E2OW8xIj6aME_3n_N-22" value="" style="shape=umlLifeline;participant=umlActor;perimeter=lifelinePerimeter;whiteSpace=wrap;html=1;container=1;collapsible=0;recursiveResize=0;verticalAlign=top;spacingTop=36;outlineConnect=0;" parent="1" vertex="1">
          <mxGeometry x="-818" y="881" width="20" height="190" as="geometry" />
        </mxCell>
        <mxCell id="vx2E2OW8xIj6aME_3n_N-26" value="validarCliente" style="text;html=1;align=center;verticalAlign=middle;resizable=0;points=[];autosize=1;strokeColor=none;" parent="1" vertex="1">
          <mxGeometry x="-754" y="942" width="83" height="18" as="geometry" />
        </mxCell>
        <mxCell id="vx2E2OW8xIj6aME_3n_N-27" value="Financiamento" style="shape=umlLifeline;perimeter=lifelinePerimeter;container=1;collapsible=0;recursiveResize=0;rounded=0;shadow=0;strokeWidth=1;" parent="1" vertex="1">
          <mxGeometry x="-678" y="871" width="100" height="205" as="geometry" />
        </mxCell>
        <mxCell id="vx2E2OW8xIj6aME_3n_N-28" value="" style="points=[];perimeter=orthogonalPerimeter;rounded=0;shadow=0;strokeWidth=1;" parent="vx2E2OW8xIj6aME_3n_N-27" vertex="1">
          <mxGeometry x="45" y="83" width="10" height="76" as="geometry" />
        </mxCell>
        <mxCell id="vx2E2OW8xIj6aME_3n_N-29" value="Pedido" style="shape=umlLifeline;perimeter=lifelinePerimeter;whiteSpace=wrap;html=1;container=1;collapsible=0;recursiveResize=0;outlineConnect=0;" parent="1" vertex="1">
          <mxGeometry x="-498" y="871" width="100" height="195" as="geometry" />
        </mxCell>
        <mxCell id="vx2E2OW8xIj6aME_3n_N-30" value="" style="points=[];perimeter=orthogonalPerimeter;rounded=0;shadow=0;strokeWidth=1;" parent="vx2E2OW8xIj6aME_3n_N-29" vertex="1">
          <mxGeometry x="45" y="90" width="10" height="70" as="geometry" />
        </mxCell>
        <mxCell id="vx2E2OW8xIj6aME_3n_N-31" value="Produto" style="shape=umlLifeline;perimeter=lifelinePerimeter;whiteSpace=wrap;html=1;container=1;collapsible=0;recursiveResize=0;outlineConnect=0;" parent="1" vertex="1">
          <mxGeometry x="-318" y="871" width="100" height="200" as="geometry" />
        </mxCell>
        <mxCell id="vx2E2OW8xIj6aME_3n_N-32" value="" style="points=[];perimeter=orthogonalPerimeter;rounded=0;shadow=0;strokeWidth=1;" parent="vx2E2OW8xIj6aME_3n_N-31" vertex="1">
          <mxGeometry x="45" y="97" width="10" height="49" as="geometry" />
        </mxCell>
        <mxCell id="vx2E2OW8xIj6aME_3n_N-33" value="incluir" style="verticalAlign=bottom;endArrow=block;shadow=0;strokeWidth=1;" parent="1" edge="1">
          <mxGeometry x="0.0909" y="5" relative="1" as="geometry">
            <mxPoint x="-618" y="976.5" as="sourcePoint" />
            <mxPoint x="-453" y="976.5" as="targetPoint" />
            <mxPoint y="1" as="offset" />
          </mxGeometry>
        </mxCell>
        <mxCell id="vx2E2OW8xIj6aME_3n_N-34" value="verifica" style="verticalAlign=bottom;endArrow=block;shadow=0;strokeWidth=1;" parent="1" edge="1">
          <mxGeometry x="-0.1152" y="6" relative="1" as="geometry">
            <mxPoint x="-438" y="980.5" as="sourcePoint" />
            <mxPoint x="-273" y="980.5" as="targetPoint" />
            <mxPoint y="1" as="offset" />
          </mxGeometry>
        </mxCell>
        <mxCell id="vx2E2OW8xIj6aME_3n_N-42" value="Vendedor" style="shape=umlLifeline;perimeter=lifelinePerimeter;container=1;collapsible=0;recursiveResize=0;rounded=0;shadow=0;strokeWidth=1;" parent="1" vertex="1">
          <mxGeometry x="-649" y="1175" width="100" height="200" as="geometry" />
        </mxCell>
        <mxCell id="vx2E2OW8xIj6aME_3n_N-43" value="" style="points=[];perimeter=orthogonalPerimeter;rounded=0;shadow=0;strokeWidth=1;" parent="vx2E2OW8xIj6aME_3n_N-42" vertex="1">
          <mxGeometry x="45" y="80" width="10" height="80" as="geometry" />
        </mxCell>
        <mxCell id="vx2E2OW8xIj6aME_3n_N-44" value="" style="verticalAlign=bottom;endArrow=open;dashed=1;endSize=8;shadow=0;strokeWidth=1;" parent="1" edge="1">
          <mxGeometry relative="1" as="geometry">
            <mxPoint x="-769" y="1318" as="targetPoint" />
            <mxPoint x="-609" y="1318" as="sourcePoint" />
          </mxGeometry>
        </mxCell>
        <mxCell id="vx2E2OW8xIj6aME_3n_N-45" value="incluir" style="verticalAlign=bottom;endArrow=block;shadow=0;strokeWidth=1;" parent="1" edge="1">
          <mxGeometry x="-0.0052" y="10" relative="1" as="geometry">
            <mxPoint x="-769" y="1275" as="sourcePoint" />
            <mxPoint x="-609" y="1274" as="targetPoint" />
            <mxPoint as="offset" />
          </mxGeometry>
        </mxCell>
        <mxCell id="vx2E2OW8xIj6aME_3n_N-46" value="" style="shape=umlLifeline;participant=umlActor;perimeter=lifelinePerimeter;whiteSpace=wrap;html=1;container=1;collapsible=0;recursiveResize=0;verticalAlign=top;spacingTop=36;outlineConnect=0;" parent="1" vertex="1">
          <mxGeometry x="-790" y="1195" width="20" height="195" as="geometry" />
        </mxCell>
        <mxCell id="vx2E2OW8xIj6aME_3n_N-47" value="Vendedor" style="shape=umlLifeline;perimeter=lifelinePerimeter;container=1;collapsible=0;recursiveResize=0;rounded=0;shadow=0;strokeWidth=1;" parent="1" vertex="1">
          <mxGeometry x="-186.5" y="1171" width="100" height="200" as="geometry" />
        </mxCell>
        <mxCell id="vx2E2OW8xIj6aME_3n_N-48" value="" style="points=[];perimeter=orthogonalPerimeter;rounded=0;shadow=0;strokeWidth=1;" parent="vx2E2OW8xIj6aME_3n_N-47" vertex="1">
          <mxGeometry x="45" y="85" width="10" height="59" as="geometry" />
        </mxCell>
        <mxCell id="vx2E2OW8xIj6aME_3n_N-49" value="" style="verticalAlign=bottom;endArrow=open;dashed=1;endSize=8;shadow=0;strokeWidth=1;" parent="1" edge="1">
          <mxGeometry relative="1" as="geometry">
            <mxPoint x="-307.5" y="1308" as="targetPoint" />
            <mxPoint x="-147.5" y="1308" as="sourcePoint" />
          </mxGeometry>
        </mxCell>
        <mxCell id="vx2E2OW8xIj6aME_3n_N-50" value="alterar" style="verticalAlign=bottom;endArrow=block;shadow=0;strokeWidth=1;" parent="1" edge="1">
          <mxGeometry x="-0.0052" y="10" relative="1" as="geometry">
            <mxPoint x="-303.5" y="1277" as="sourcePoint" />
            <mxPoint x="-143.5" y="1276" as="targetPoint" />
            <mxPoint as="offset" />
          </mxGeometry>
        </mxCell>
        <mxCell id="vx2E2OW8xIj6aME_3n_N-51" value="" style="shape=umlLifeline;participant=umlActor;perimeter=lifelinePerimeter;whiteSpace=wrap;html=1;container=1;collapsible=0;recursiveResize=0;verticalAlign=top;spacingTop=36;outlineConnect=0;" parent="1" vertex="1">
          <mxGeometry x="-323.5" y="1188" width="20" height="191" as="geometry" />
        </mxCell>
        <mxCell id="vx2E2OW8xIj6aME_3n_N-57" value="Vendedor" style="shape=umlLifeline;perimeter=lifelinePerimeter;container=1;collapsible=0;recursiveResize=0;rounded=0;shadow=0;strokeWidth=1;" parent="1" vertex="1">
          <mxGeometry x="225" y="1157" width="100" height="205" as="geometry" />
        </mxCell>
        <mxCell id="vx2E2OW8xIj6aME_3n_N-58" value="" style="points=[];perimeter=orthogonalPerimeter;rounded=0;shadow=0;strokeWidth=1;" parent="vx2E2OW8xIj6aME_3n_N-57" vertex="1">
          <mxGeometry x="45" y="80" width="10" height="90" as="geometry" />
        </mxCell>
        <mxCell id="vx2E2OW8xIj6aME_3n_N-59" value="excluir" style="verticalAlign=bottom;endArrow=block;shadow=0;strokeWidth=1;" parent="1" edge="1">
          <mxGeometry x="-0.0052" y="10" relative="1" as="geometry">
            <mxPoint x="101" y="1260" as="sourcePoint" />
            <mxPoint x="266" y="1260" as="targetPoint" />
            <mxPoint as="offset" />
          </mxGeometry>
        </mxCell>
        <mxCell id="vx2E2OW8xIj6aME_3n_N-60" value="" style="shape=umlLifeline;participant=umlActor;perimeter=lifelinePerimeter;whiteSpace=wrap;html=1;container=1;collapsible=0;recursiveResize=0;verticalAlign=top;spacingTop=36;outlineConnect=0;" parent="1" vertex="1">
          <mxGeometry x="85" y="1169" width="20" height="195" as="geometry" />
        </mxCell>
        <mxCell id="vx2E2OW8xIj6aME_3n_N-61" value="Pedido" style="shape=umlLifeline;perimeter=lifelinePerimeter;whiteSpace=wrap;html=1;container=1;collapsible=0;recursiveResize=0;outlineConnect=0;" parent="1" vertex="1">
          <mxGeometry x="405" y="1157" width="100" height="195" as="geometry" />
        </mxCell>
        <mxCell id="vx2E2OW8xIj6aME_3n_N-62" value="" style="points=[];perimeter=orthogonalPerimeter;rounded=0;shadow=0;strokeWidth=1;" parent="vx2E2OW8xIj6aME_3n_N-61" vertex="1">
          <mxGeometry x="45" y="90" width="10" height="60" as="geometry" />
        </mxCell>
        <mxCell id="vx2E2OW8xIj6aME_3n_N-63" value="verificaExistencia" style="verticalAlign=bottom;endArrow=block;shadow=0;strokeWidth=1;" parent="1" edge="1">
          <mxGeometry x="0.0909" y="5" relative="1" as="geometry">
            <mxPoint x="285" y="1271.5" as="sourcePoint" />
            <mxPoint x="450" y="1271.5" as="targetPoint" />
            <mxPoint y="1" as="offset" />
          </mxGeometry>
        </mxCell>
        <mxCell id="vx2E2OW8xIj6aME_3n_N-64" value="" style="verticalAlign=bottom;endArrow=open;dashed=1;endSize=8;shadow=0;strokeWidth=1;" parent="1" edge="1">
          <mxGeometry relative="1" as="geometry">
            <mxPoint x="285" y="1296" as="targetPoint" />
            <mxPoint x="445" y="1296" as="sourcePoint" />
          </mxGeometry>
        </mxCell>
        <mxCell id="vx2E2OW8xIj6aME_3n_N-65" value="" style="verticalAlign=bottom;endArrow=open;dashed=1;endSize=8;shadow=0;strokeWidth=1;" parent="1" edge="1">
          <mxGeometry relative="1" as="geometry">
            <mxPoint x="105" y="1303" as="targetPoint" />
            <mxPoint x="265" y="1303" as="sourcePoint" />
          </mxGeometry>
        </mxCell>
        <mxCell id="iCe4WsFmx_y9ac7N3wKC-16" value="&lt;p class=&quot;MsoNormal&quot; style=&quot;margin-left: 36.0pt&quot;&gt;Registar venda com financiamento&lt;/p&gt;" style="text;html=1;strokeColor=#99004D;fillColor=none;align=center;verticalAlign=middle;whiteSpace=wrap;rounded=0;" vertex="1" parent="1">
          <mxGeometry x="-818" y="813" width="240" height="20" as="geometry" />
        </mxCell>
        <mxCell id="iCe4WsFmx_y9ac7N3wKC-18" value="Financiamento" style="shape=umlLifeline;perimeter=lifelinePerimeter;whiteSpace=wrap;html=1;container=1;collapsible=0;recursiveResize=0;outlineConnect=0;" vertex="1" parent="1">
          <mxGeometry x="-132" y="871" width="100" height="200" as="geometry" />
        </mxCell>
        <mxCell id="iCe4WsFmx_y9ac7N3wKC-19" value="" style="points=[];perimeter=orthogonalPerimeter;rounded=0;shadow=0;strokeWidth=1;" vertex="1" parent="iCe4WsFmx_y9ac7N3wKC-18">
          <mxGeometry x="45" y="100" width="10" height="40" as="geometry" />
        </mxCell>
        <mxCell id="iCe4WsFmx_y9ac7N3wKC-20" value="calculaParcela" style="verticalAlign=bottom;endArrow=block;shadow=0;strokeWidth=1;" edge="1" parent="1">
          <mxGeometry x="-0.0303" y="8" relative="1" as="geometry">
            <mxPoint x="-252" y="987.5" as="sourcePoint" />
            <mxPoint x="-87" y="987.5" as="targetPoint" />
            <mxPoint y="1" as="offset" />
          </mxGeometry>
        </mxCell>
        <mxCell id="iCe4WsFmx_y9ac7N3wKC-21" value="" style="verticalAlign=bottom;endArrow=open;dashed=1;endSize=8;shadow=0;strokeWidth=1;" edge="1" parent="1" target="vx2E2OW8xIj6aME_3n_N-22">
          <mxGeometry relative="1" as="geometry">
            <mxPoint x="-247" y="1027" as="targetPoint" />
            <mxPoint x="-87" y="1037" as="sourcePoint" />
            <Array as="points">
              <mxPoint x="-524" y="1037" />
            </Array>
          </mxGeometry>
        </mxCell>
      </root>
    </mxGraphModel>
  </diagram>
</mxfile>
